<?xml version="1.0" encoding="UTF-8"?>
<svg id="Layer_2" data-name="Layer 2" xmlns="http://www.w3.org/2000/svg" viewBox="0 0 527.16 100.32">
  <defs>
    <style>
      .cls-1 {
        fill:rgb(255, 255, 255);
      }
    </style>
  </defs>
  <g id="Logo_Font" data-name="Logo Font">
    <g>
      <g>
        <path class="cls-1" d="M486.57,87.68l-20.29-7.65s-14.4,14.98-17.62,18.41c4.3-2.91,8.33-5.6,12.56-5.73,9.92-.3,18.41,7.6,18.41,7.6l23.73-25.64v-18.17l6.44-7.96c-4.17,2.32-9.18,2.56-15.06.72l-9.01-12.89V11.45c7.76,6.14,14.22,10.1,19.4,11.9l22.03-15.71c-7.36,3.94-13.75,4.42-19.17,1.41-5.41-3-9.04-6.02-10.88-9.04l-22.35,16.41v4.25s0-.47,0-.47v16.21s17.03,25.16,17.03,25.16v20.47M480.4,14.74c.39,3.81,1.77,6.73,4.14,8.61-2.28,1.67-3.7,7.6-4.27,17.95-.53-10.34-1.94-16.09-4.35-17.93,2.28-1.62,3.74-4.73,4.49-8.63Z"/>
        <line class="cls-1" x1="444.78" y1="87.3" x2="444.72" y2="87.45"/>
        <g>
          <path class="cls-1" d="M439.95,16.5l-.03,42.06c-4.7,18.11-13.04,28.54-25.31,33.47,13.67-.79,23.17-11.39,30.09-28.46,2.67,3.78,5.36,8.93,6.78,14.24,2.48,9.28-4.85,18.7-4.85,18.7l17.66-18.47-13.54-19.56V15.72c5.9-2.21,10.33-7.12,13.28-14.72-6.31,4.98-11.96,7.19-16.94,6.61-4.98-.57-9.43-3.07-13.34-7.5l-10.96,14.28,6.53-3.1c2.91,2.88,6.46,4.61,10.63,5.2ZM445.43,17.27c.33,3.14,1.48,5.48,3.43,7.03-1.88,1.37-3.06,11.49-3.54,30.39-.44-18.89-1.66-29.09-3.65-30.61,1.88-1.33,3.14-3.6,3.76-6.81Z"/>
          <path class="cls-1" d="M452.96,17.38l-.06,39.34,3.15-2.6V17.77c3.65-3.73,7.93-4.39,12.84-1.99-5.39-5.09-10.7-4.56-15.94,1.61Z"/>
          <path class="cls-1" d="M434.06,57.06c-2.06,8.95-5.53,20.74-15.4,29.88,11.31-7.22,15.96-19.25,18.49-29.18l-.03-39.43-3.15,2.6"/>
        </g>
      </g>
      <g>
        <path class="cls-1" d="M179.63,14.76c3.19-.67,6.32-1.85,8.95-3.67l5.85,2.63-9.32-12.1c-4.6,6.33-9.56,6.98-15.1,6.85-5.47-.13-9.9-2.66-11.92-8.44-6.55,11.72-16.21,15.53-25.24,18.24-8.24,2.48-13.43,4.15-20.34.4l6.13,6.7-.06,37.15,10.92,11.5v-26.76l2.64-1.07c2.66,2.61,5.69,3.65,9.09,3.13,3.4-.52,7.02-3.56,10.84-9.13-8.79,3.75-14.27,2.87-16.43-2.65l-6.15,7.95v-17.02c12.3-2,25.87-8.81,32.8-15.21,1.42.94,3.78,1.65,6.59,1.99l.04,18.97,5.31,33.46-8.05-33.46.22-15.31-3.45-4.11-.11,2.5-.05,11.54.16,5.59,11.31,33.38.32,1.98.44-3.08,10.47-32.4v-11.58l-3.13-2.58.05,13.99-7.37,32.37,4.58-32.04V14.76ZM174.09,46.49c-.47-6.29-1.65-10.11-3.51-11.46,1.94-1.54,3.07-7.51,3.4-17.93.62,10.49,1.86,16.4,3.73,17.71-1.97,1.5-3.18,5.39-3.62,11.68Z"/>
        <path class="cls-1" d="M153.95,92.86l-22.23-23.14.02,6.49,23.17,24.09s9.66-5.66,15.36-2.62l-8.67-8.59-7.65,3.77Z"/>
      </g>
      <g>
        <g>
          <path class="cls-1" d="M312.28,22.64l-.05,59.66,3.12-2.58V25.21c3.29-8.36,8-13.37,14.14-15.01-7.01-.44-12.75,3.71-17.2,12.44Z"/>
          <path class="cls-1" d="M217.62,16.21l-.05,59.5c-2.52,8.36-9.42,18.71-20.7,24.37,10.4-1.9,18.89-8.99,25.46-18.48l27.27,10.11,19.4-17.92-.02-54.03,2.67-2.76,27.1,10.38v57.5c-5.84,2.19-10.23,7.05-13.15,14.57,6.25-4.93,11.84-7.11,16.77-6.55,4.93.57,9.33,3.04,13.2,7.42l10.85-14.14-6.47,3.07c-2.88-2.85-6.39-4.57-10.52-5.15l.05-59.54c2.52-8.36,9.42-18.73,20.71-24.39-10.41,1.9-18.9,9.09-25.48,18.58l-27.24-10.22-19.4,17.92.02,54.03-2.67,2.76-27.14-10.27V15.44c5.84-2.19,10.22-7.04,13.14-14.56-6.24,4.93-11.83,7.11-16.75,6.54-4.93-.57-9.33-3.04-13.2-7.42l-10.84,14.13,6.46-3.07c2.88,2.85,6.39,4.56,10.51,5.15ZM304.11,46.3c.44,18.7,1.64,28.8,3.62,30.3-1.86,1.31-3.1,3.56-3.73,6.74-.33-3.1-1.46-5.42-3.4-6.96,1.86-1.35,3.03-11.38,3.51-30.08ZM223.04,16.97c.33,3.1,1.46,5.42,3.39,6.95-1.86,1.35-3.03,11.37-3.5,30.06-.44-18.69-1.64-28.78-3.61-30.28,1.86-1.31,3.1-3.56,3.72-6.73Z"/>
          <path class="cls-1" d="M214.77,77.63l.05-59.61-3.12,2.57v54.47c-3.29,8.36-7.99,13.36-14.13,15,7.01.44,12.74-3.7,17.19-12.43Z"/>
        </g>
        <polygon class="cls-1" points="247.39 48.19 236.14 50.17 245.82 51.34 243.28 56.44 243.29 56.44 243.29 56.44 247.34 56.44 277.52 56.44 277.53 56.44 277.53 56.44 279.67 52.13 290.91 50.15 281.24 48.98 283.78 43.88 283.77 43.88 283.77 43.88 279.71 43.88 249.54 43.88 249.53 43.88 249.53 43.88 247.39 48.19"/>
      </g>
      <g>
        <path class="cls-1" d="M347.4,85.57c-3.19.67-6.32,1.85-8.95,3.67l-5.85-2.63,9.32,12.1c4.6-6.33,9.56-6.98,15.1-6.85,5.47.13,9.9,2.66,11.92,8.44,6.55-11.72,16.21-15.53,25.24-18.24,8.24-2.48,13.43-4.15,20.34-.4l-6.13-6.7.06-37.15-10.92-11.5v26.76l-2.64,1.07c-2.66-2.61-5.69-3.65-9.09-3.13-3.4.52-7.02,3.56-10.84,9.13,8.79-3.75,14.27-2.87,16.43,2.65l6.15-7.95v17.02c-12.3,2-25.87,8.81-32.8,15.21-1.42-.94-3.78-1.65-6.59-1.99l-.04-18.97-5.31-33.46,8.05,33.46-.22,15.31,3.45,4.11.11-2.5.05-11.54-.16-5.59-11.31-33.38-.32-1.98-.44,3.08-10.47,32.4v11.58l3.13,2.58-.05-13.99,7.37-32.37-4.58,32.04v19.73ZM352.94,53.83c.47,6.29,1.65,10.11,3.51,11.46-1.94,1.54-3.07,7.51-3.4,17.93-.62-10.49-1.86-16.4-3.73-17.71,1.97-1.5,3.18-5.39,3.62-11.68Z"/>
        <path class="cls-1" d="M373.08,7.46l22.23,23.14-.02-6.49L372.12.02s-9.66,5.66-15.36,2.62l8.67,8.59,7.65-3.77Z"/>
      </g>
      <g>
        <path class="cls-1" d="M40.59,12.64l20.29,7.65s14.4-14.98,17.62-18.41c-4.3,2.91-8.33,5.6-12.56,5.73C56.02,7.91,47.53,0,47.53,0l-23.73,25.64v18.17l-6.44,7.96c4.17-2.32,9.18-2.56,15.06-.72l9.01,12.89v24.93c-7.76-6.14-14.22-10.1-19.4-11.9L0,92.68c7.36-3.94,13.75-4.42,19.17-1.41,5.41,3,9.04,6.02,10.88,9.04l22.35-16.41v-4.25s0,.47,0,.47v-16.21s-17.03-25.16-17.03-25.16v-20.47M46.77,85.58c-.39-3.81-1.77-6.73-4.14-8.61,2.28-1.67,3.7-7.6,4.27-17.95.53,10.34,1.94,16.09,4.35,17.93-2.28,1.62-3.74,4.73-4.49,8.63Z"/>
        <line class="cls-1" x1="82.39" y1="13.02" x2="82.45" y2="12.87"/>
        <g>
          <path class="cls-1" d="M87.21,83.82l.03-42.06c4.7-18.11,13.04-28.54,25.31-33.47-13.67.79-23.17,11.39-30.09,28.46-2.67-3.78-5.36-8.93-6.78-14.24-2.48-9.28,4.85-18.7,4.85-18.7l-17.66,18.47,13.54,19.56v42.75c-5.9,2.21-10.33,7.12-13.28,14.72,6.31-4.98,11.96-7.19,16.94-6.61,4.98.57,9.43,3.07,13.34,7.5l10.96-14.28-6.53,3.1c-2.91-2.88-6.46-4.61-10.63-5.2ZM81.73,83.05c-.33-3.14-1.48-5.48-3.43-7.03,1.88-1.37,3.06-11.49,3.54-30.39.44,18.89,1.66,29.09,3.65,30.61-1.88,1.33-3.14,3.6-3.76,6.81Z"/>
          <path class="cls-1" d="M74.2,82.94l.06-39.34-3.15,2.6v36.35c-3.65,3.73-7.93,4.39-12.84,1.99,5.39,5.09,10.7,4.56,15.94-1.61Z"/>
          <path class="cls-1" d="M93.1,43.26c2.06-8.95,5.53-20.74,15.4-29.88-11.31,7.22-15.96,19.25-18.49,29.18l.03,39.43,3.15-2.6"/>
        </g>
      </g>
    </g>
  </g>
</svg>