<?xml version="1.0" encoding="UTF-8"?>
<svg id="Layer_2" data-name="Layer 2" xmlns="http://www.w3.org/2000/svg" viewBox="0 0 133.33 100.32">
  <defs>
    <style>
      .cls-1 {
        fill:rgb(255, 255, 255);
      }
    </style>
  </defs>
  <g id="Logo_Font" data-name="Logo Font">
    <g>
      <g>
        <path class="cls-1" d="M115.41,22.64l-.05,59.66,3.12-2.58V25.21c3.29-8.36,8-13.37,14.14-15.01-7.01-.44-12.75,3.71-17.2,12.44Z"/>
        <path class="cls-1" d="M20.75,16.21l-.05,59.5c-2.52,8.36-9.42,18.71-20.7,24.37,10.4-1.9,18.89-8.99,25.46-18.48l27.27,10.11,19.4-17.92-.02-54.03,2.67-2.76,27.1,10.38v57.5c-5.84,2.19-10.23,7.05-13.15,14.57,6.25-4.93,11.84-7.11,16.77-6.55,4.93.57,9.33,3.04,13.2,7.42l10.85-14.14-6.47,3.07c-2.88-2.85-6.39-4.57-10.52-5.15l.05-59.54c2.52-8.36,9.42-18.73,20.71-24.39-10.41,1.9-18.9,9.09-25.48,18.58l-27.24-10.22-19.4,17.92.02,54.03-2.67,2.76-27.14-10.27V15.44c5.84-2.19,10.22-7.04,13.14-14.56-6.24,4.93-11.83,7.11-16.75,6.54-4.93-.57-9.33-3.04-13.2-7.42L3.78,14.13l6.46-3.07c2.88,2.85,6.39,4.56,10.51,5.15ZM107.25,46.3c.44,18.7,1.64,28.8,3.62,30.3-1.86,1.31-3.1,3.56-3.73,6.74-.33-3.1-1.46-5.42-3.4-6.96,1.86-1.35,3.03-11.38,3.51-30.08ZM26.17,16.97c.33,3.1,1.46,5.42,3.39,6.95-1.86,1.35-3.03,11.37-3.5,30.06-.44-18.69-1.64-28.78-3.61-30.28,1.86-1.31,3.1-3.56,3.72-6.73Z"/>
        <path class="cls-1" d="M17.9,77.63l.05-59.61-3.12,2.57v54.47c-3.29,8.36-7.99,13.36-14.13,15,7.01.44,12.74-3.7,17.19-12.43Z"/>
      </g>
      <polygon class="cls-1" points="50.52 48.19 39.28 50.17 48.96 51.34 46.42 56.44 46.42 56.44 46.42 56.44 50.48 56.44 80.66 56.44 80.66 56.44 80.67 56.44 82.81 52.13 94.05 50.15 84.37 48.98 86.91 43.88 86.91 43.88 86.91 43.88 82.85 43.88 52.67 43.88 52.67 43.88 52.66 43.88 50.52 48.19"/>
    </g>
  </g>
</svg>