<?xml version="1.0" encoding="UTF-8"?>
<svg id="Layer_2" data-name="Layer 2" xmlns="http://www.w3.org/2000/svg" viewBox="0 0 85.82 85.82">
  <defs>
    <style>
      .cls-1 {
        fill: #514d1f;
      }
    </style>
  </defs>
  <g id="_ÎÓÈ_2" data-name="—ÎÓÈ 2">
    <g>
      <path class="cls-1" d="M32.5,31.65c-1.89.43-3.43.71-4.57.94-5.75,1.18-11.05-.16-11.05-.16-2.48.13-2.52.21-3.29.52-1.92.74-3.79,1.64-6.44,3.91-.94.8-1.88,1.73-2.47,2.33-1.58,1.6-1.23,3.68-1.23,3.68-2.13-2.92.87-5.96.87-5.96-.96-.25-1.33-1.26-1.33-1.26,2.44.62,4.55-1.42,4.55-1.42-.61-.14-1.37-1.12-1.37-1.12,1.49-.5,3.34-.75,3.34-.75-.57-.36-1.39-1.67-1.39-1.67,1.65-.3,5.07-.07,5.07-.07-4.78-3.18-5.91-5.86-7.02-8.46-.56-1.3-.91-2.58-1.37-3.4-2.01-3.53-4.81-2.1-4.81-2.1,1.21-4.16,4.64-1.37,4.64-1.37,1.18-6.51,3.87-8.99,6.46-10.3,1.67-.85,2.19-.96,2.88-1.35,2.16-1.23,1.32-3.63,1.32-3.63,2.99,1.21,1.8,3.61,1.8,3.61,5.14.37,9.55,6.81,9.55,6.81,0,0,.77,1.01,1.25,1.59,0,0,2.4,3.23,4.82.6,0,0,.59,2.24-2.09,2.9,0,0,.57,1.37-.39,2.31,0,0-.71-1.56-2.91-3.71,0,0,.09,1.88-.36,3.59-.37,1.42.43,2.24,1.51,3.3,0,0,.95.92,1.89-.24,0,0,.84,1.43-.51,2,0,0,1.31,1.05,2.28.37,0,0,.49.72-.44,1.57,0,0,2.05,1.2,3.42.57,0,0-.68,2.79-4.11,1.63,0,0,.16.82-.47,1.34,0,0-1.52-.93-2.29-2.55,0,0-.45,1.45-1.64.89,0,0,.59-1.08-.37-2.82,0,0-.3.55-.85.61,0,0-.69-.95-.46-2.7.06-.44.2-1.01.11-1.78,0,0-2.65,3.43-6.96,1.42,0,0,4.23-.55,6.16-3.11.94-1.24,1.99-3.34.47-6.48-.34-.71-.69-1.21-1.88-2.47,0,0-.62,2.05-2.25,2.26,0,0,.74-3.88-3.08-4.93,0,0-3.82-.91-7.25,2.2,0,0,3.94.79,1.71,4.59,0,0-1.05-3.46-3.06-1.91,0,0-1.77,1.13-1.97,5.28,0,0,.97-.52,2.05-.08,0,0,.13,1.2-1.36,2.91,0,0,.6,2.44,1.92,4.48,0,0,2.51,3.84,4.79,4.51,0,0-1.08-2.79-2.26-3.83,0,0,.98-.62,1.62-.2,0,0,.8-.98,1.53-.96,0,0-.74,3.2,1.55,5.28,1.08.99,2.15,2.12,5.25,2.11,1.63,0,4.06-.25,5.47-.48,2.66-.44,5.02-.8,7.17-1.64,2.11-.83,3.66-1.2,3.66-1.2-.85-.59-.91-2.19-.91-2.19,4.4,1.52,8.1.79,8.1.79-2.62-3.23.44-6.52.44-6.52-.53,5.02,3.51,6.71,3.51,6.71.43.22,1.08.55,1.46.7,4.32,1.76,6.8,6.04,6.8,6.04-.71.18-1.84.42-1.84.42-2.54-3.86-6.33-4.94-6.33-4.94-4.63-.89-7.97,1.14-7.97,1.14-3.72,2.44-2.9,6.6-2.9,6.6-1.55-.8-1.48-2.61-1.48-2.61-1.42.64-1.89.28-1.89.28.09-1.94,3.22-4.22,3.22-4.22-3.13.96-4.48,3.1-4.48,3.1-4.71,5.92,1.96,8.18,1.96,8.18-2.97.94-4.57-1.23-4.57-1.23,0,0-1.09-1.41-1-3.42.06-1.42.85-3.23,2.09-4.82Z"/>
      <path class="cls-1" d="M54.17,53.32c-.43,1.89-.71,3.43-.94,4.57-1.18,5.75.16,11.05.16,11.05-.13,2.48-.22,2.51-.52,3.29-.74,1.92-1.64,3.79-3.91,6.44-.8.94-1.73,1.88-2.33,2.47-1.6,1.58-3.68,1.23-3.68,1.23,2.92,2.14,5.96-.87,5.96-.87.25.96,1.26,1.33,1.26,1.33-.62-2.44,1.42-4.55,1.42-4.55.14.61,1.12,1.37,1.12,1.37.5-1.49.75-3.34.75-3.34.36.57,1.67,1.39,1.67,1.39.3-1.65.07-5.07.07-5.07,3.18,4.78,5.86,5.91,8.46,7.02,1.3.56,2.58.91,3.4,1.37,3.53,2.01,2.1,4.81,2.1,4.81,4.16-1.21,1.37-4.64,1.37-4.64,6.51-1.18,8.99-3.87,10.3-6.46.85-1.67.96-2.19,1.35-2.88,1.23-2.16,3.63-1.32,3.63-1.32-1.21-2.99-3.61-1.8-3.61-1.8-.37-5.14-6.81-9.55-6.81-9.55,0,0-1.01-.77-1.59-1.25,0,0-3.23-2.4-.6-4.82,0,0-2.24-.59-2.9,2.09,0,0-1.37-.57-2.31.39,0,0,1.56.71,3.71,2.91,0,0-1.88-.09-3.59.36-1.42.37-2.24-.43-3.3-1.51,0,0-.92-.95.24-1.89,0,0-1.43-.84-2,.51,0,0-1.05-1.31-.37-2.28,0,0-.72-.49-1.57.44,0,0-1.2-2.05-.57-3.42,0,0-2.79.68-1.63,4.11,0,0-.82-.16-1.34.47,0,0,.93,1.52,2.55,2.29,0,0-1.45.45-.89,1.64,0,0,1.08-.59,2.82.37,0,0-.55.3-.6.85,0,0,.95.69,2.7.46.44-.06,1.01-.2,1.78-.11,0,0-3.43,2.65-1.42,6.96,0,0,.55-4.23,3.11-6.16,1.24-.94,3.34-1.99,6.48-.47.71.34,1.21.69,2.47,1.88,0,0-2.05.62-2.26,2.25,0,0,3.88-.74,4.93,3.08,0,0,.91,3.82-2.2,7.25,0,0-.79-3.94-4.59-1.71,0,0,3.46,1.05,1.91,3.06,0,0-1.13,1.77-5.28,1.97,0,0,.52-.97.08-2.05,0,0-1.2-.13-2.91,1.36,0,0-2.44-.6-4.48-1.92,0,0-3.84-2.51-4.51-4.79,0,0,2.79,1.08,3.83,2.26,0,0,.62-.98.2-1.62,0,0,.98-.8.96-1.53,0,0-3.2.74-5.28-1.55-.99-1.08-2.12-2.15-2.11-5.25,0-1.63.25-4.06.48-5.47.44-2.66.8-5.02,1.64-7.17.83-2.11,1.2-3.66,1.2-3.66.59.85,2.19.91,2.19.91-1.52-4.4-.79-8.1-.79-8.1,3.23,2.62,6.53-.44,6.53-.44-5.02.53-6.71-3.51-6.71-3.51-.22-.43-.55-1.08-.7-1.46-1.76-4.32-6.04-6.8-6.04-6.8-.18.71-.34,1.91-.34,1.91,3.86,2.54,4.86,6.26,4.86,6.26.89,4.63-1.14,7.97-1.14,7.97-2.44,3.72-6.6,2.9-6.6,2.9.8,1.55,2.62,1.48,2.62,1.48-.64,1.42-.28,1.89-.28,1.89,1.94-.09,4.22-3.22,4.22-3.22-.96,3.13-3.1,4.48-3.1,4.48-5.92,4.71-8.18-1.96-8.18-1.96-.94,2.97,1.23,4.57,1.23,4.57,0,0,1.41,1.09,3.42,1,1.42-.06,3.23-.85,4.82-2.09Z"/>
    </g>
  </g>
</svg>