<?xml version="1.0" encoding="UTF-8"?>
<svg id="Layer_2" data-name="Layer 2" xmlns="http://www.w3.org/2000/svg" viewBox="0 0 114.57 117.47">
  <defs>
    <style>
      .cls-1 {
        fill: #808038;
      }
    </style>
  </defs>
  <g id="designs">
    <path class="cls-1" d="M10.28,29.25s-10.44,1.44-5.56,10.75c0,0,.25-3.62,5.06-3.81,0,0,3.19-.41,5.81,3.38,0,0,3.46,6.04,9.75-.31,0,0,2.93,1.89,5.75,1.94,12.11.92,21.39,3.14,27.92,5.76-2.39,4.15-3.31,7.4-3.34,7.48l-.12.44.43.16c4.13,1.52,9.13,5.27,9.18,5.31l.61.46.18-.74c.84-3.49,3.83-7.79,3.86-7.83l.28-.41-.4-.29c-2.27-1.62-5.29-3.39-9.24-5.07,1.76-2.87,4.03-6,7.18-8.72,19.83,11.04,22.01,30.57,22.15,37.34-.06,2.42-.89,12.01-10.06,13.29,0,0,.87,4.09,5.22,5.03,0,0-5.44,2.41-.81,11,0,0,3.41,5.47-1.81,8.44,0,0,6.84.62,8.78-8.84,0,0,4.44,10.44,10.81,12.73,0,0,6.06,2.71,10.34-2.26,0,0,3.93-4.72-.59-9.47,0,0-3.28-3.72-6.94-.66,0,0,3.84.88,2.02,4.86,0,0-1.6,3.46-5.69,2.6,0,0-5.9-1.25-9.74-10.78,0,0,6.47.86,7.18-7.8,0,0-5.37,2.04-6.83-3.29,0,0-1.07-3.25-.78-7.47,0,0,.44-3.83.31-6.67-.09-6.08-1.98-26.94-22.78-38.69,2.98-2.41,6.69-4.46,11.43-5.66.64-.18,15.06-3.96,21.14,9.29.52,1.64.73,4.21-1.3,7.07,0,0-1.61,2.31-4.3,1.44,0,0-2.06-.56-2.38-2.12,0,0-4.59,6.94,5.12,9.59,0,0-5.45,7.74-5.41,13.41,0,0-.46,7.15,4.44,8.73,0,0,4.94,1.96,8.09-2.23,0,0,1.02-1.25.7-2.04,0,0-.44-1.04-2.15,1.21,0,0-2.42,3.48-6.4,2.25,0,0-3.71-1.15-1.94-6.1,0,0,1.98-4.42,7.81-5.25,0,0,1.79-2.92,1.54-4.25,0,0,7.87,2.96,9.75-5.83,0,0-5.12.71-5.58-6.71,0,0-.08-5.81-5.17-8.71-1.6-4.28-4-7.08-6.64-8.9,5.02.23,9.75-2.91,9.75-2.91,4.06-2.5,6.72-.12,6.72-.12-1.22-5.25-9.62-5.9-9.62-5.9,1.04-1.96-.53-4.42-.53-4.42-3-4.34-6.84-2.08-6.84-2.08,2.29,1.54,1.54,4.83,1.54,4.83-1.33,4.71-5.46,4.38-5.46,4.38-5.46-.5-4.04-5.71-4.04-5.71-4.77,3.78-1.16,7.79.06,8.93-4.35-.47-7.83.45-7.91.47-5.35,1.35-9.76,3.93-13.28,6.91-1.85-1-3.82-1.93-5.96-2.77,4.1-2.63,8.53-6.56,10.85-12.09.16-.44,2.74-7.95.88-13.04-2.01-8.04-9.46-6.38-9.46-6.38-4.12-3.86-6.62-.62-6.62-.62-1.34,1.53-2.97,1.31-2.97,1.31-3.34-.22-3.03-3.06-3.03-3.06-2.34,1.56-1.59,5.16-1.59,5.16.91,4,4.81,4.66,4.81,4.66-1.19.91-.31,3.25-.31,3.25.27.94.06,2.09.06,2.09-.28,1.81-2.44,2.78-2.44,2.78-2.16.78-4.09-1.47-4.09-1.47,1.25,4.62,6.44,4.25,6.44,4.25,5.97-.25,7.69-6.03,7.69-6.03,4.28,1.84,6.37-2.25,6.37-2.25-.91-.19-1.72-1.38-1.72-1.38-1.12-2.22.75-3.5.75-3.5,1.19-.79,2.08-.45,2.46-.23,5.07,3.71,1.19,14.99,1.15,15.11-2.33,5.57-6.23,8.47-10.35,10.99-5.94-1.8-10.8-1.08-11.02-1.05-2.03.29-3.42.92-4.12,1.88-.56.77-.46,1.46-.45,1.54.03.78.35,1.45.95,1.93.84.68,2.07.83,3.01.83.75,0,1.31-.1,1.36-.1,4.07-.34,8.5-2.77,10.43-3.93.1.03.21.07.32.11,2.11.81,4.06,1.71,5.87,2.68-3.2,2.85-5.63,6.01-7.3,8.77-6.1-2.47-14.29-4.98-25.15-6.1.52-.51.96-1.2,1.28-2.13,0,0,1.59-5.07-2.33-6.54,0,0-1.46,6.75-7.96,3.29,0,0-6.63-3.54-1.92-9.25,0,0-6.22-6.54-10.92,2.35-1.1-4.83,1-7.74,1.11-7.87,5.24-6.38,12.55-1.76,12.85-1.57,3.56,1.96,3.13,5.8,2.75,7.46-.79,1.76-.15,2.06-.15,2.06.7-.02.98-1.28.98-1.28l.14-.54c.06-.18.13-.35.2-.52.26-.58.58-1.07.97-1.3.68-.39,1.41-.21,1.44-.2,2.61.51,4.55.45,5.93-.59,1.55-1.17,1.71-2.86,1.71-2.93.21-1.83-.2-3.36-1.21-4.53-1.11-1.28-2.96-1.76-4.09-2,1.4-1.36,1.43-3.57,1.03-4.68-1.54-3.63-5.59-3.04-7.49-2.37-2.19.57-3.95.41-5.2-.5-1.81-1.32-1.92-4.07-1.92-4.09l-.99.05c0,.12.19,2.96,2.38,4.55,1.5,1.09,3.55,1.31,6.07.65.23-.08,4.69-1.58,6.23,2.07.03.1,1.04,3.05-1.43,4.1l-2.06.88,2.24.07s2.92.11,4.49,1.92c.82.95,1.15,2.22.97,3.78,0,.07-.17,1.61-1.37,2.51-1.15.86-2.89.92-5.25.55,0,0-1.62-.33-2.3.5-.12.14-.34.48-.48.6.16-2.19-.17-5.45-3.09-7.06-.05-.03-8-5-13.96,1.96-.12.15-2.5,3.09-1.55,8.12-1.58-.75-4.73-2.89-6.82-8.59,0,0-2.83-7.38,2.37-9.5,0,0,2-.96,2.29,1.5,0,0,3.25-.42,3.25-4.92,0,0-.06-4.62-5.42-4.46C7.16,1.52-.55,1.23.03,12.23.03,12.23.03,21.81,10.28,29.25ZM59.31,34.14c-2.12,1.21-5.85,3.05-9.23,3.33-.72.12-2.67.26-3.62-.52-.37-.3-.56-.71-.59-1.26-.08-.65.61-1.89,3.73-2.33.05,0,4.37-.64,9.71.77ZM59.94,47.33c3.71,1.56,6.89,3.11,9.09,4.63-.73,1.1-2.98,4.27-3.85,7.15-1.41-1.01-5.34-3.36-8.69-4.69.33-1.01,1.58-3.85,3.45-7.09Z"/>
  </g>
</svg>