<?xml version="1.0" encoding="UTF-8"?>
<svg id="Layer_2" xmlns="http://www.w3.org/2000/svg" version="1.1" viewBox="0 0 121.3 446.3">
  <!-- Generator: Adobe Illustrator 29.5.1, SVG Export Plug-In . SVG Version: 2.1.0 Build 141)  -->
  <defs>
    <style>
      .st0 {
        fill: #514d1f;
      }
    </style>
  </defs>
  <g id="Layer_1-2">
    <path class="st0" d="M57.1,2.6c-1.1,1.4-2.7,5.8-3.7,9.8-2.9,12.1-10.2,33.1-19.3,55.3-19,46.5-24.2,61.3-28.7,81.7-7.5,33.5-7.2,75.3.6,99.8,5.8,18.2,15.3,31.8,33.5,47.9,5,4.4,9.8,9.6,10.7,11.5,1.4,3,1.6,10.5,1.6,67.6v64.2l2.9,2.9c3.9,3.9,8.3,3.9,12.2,0l2.9-2.9v-63.7c0-74.4-1.2-66.9,13.2-79.4,21.1-18.2,31.7-36.2,36.5-62.3,1.3-7.2,1.7-15.1,1.8-34.8,0-43.4-3.5-58.2-29-121.5-14.7-36.6-20.1-51.4-23.5-65.4-3.1-12.7-7.2-16.5-11.7-10.7h0ZM62.9,95.7c3.7,37.7,4.1,44,4.3,65.8,0,11.9.5,21.6.8,21.4s3.1-3.1,6.1-6.4c7.1-8,14.7-19.1,20.3-29.5,2.5-4.6,4.5-8,4.5-7.6,0,1.7-6.6,17.4-10.4,25-4.2,8.1-12.2,21-17.9,28.8l-2.6,3.6.2,23.4.2,23.4,12.6-12.5c8.1-8.1,14.8-15.8,18.8-21.8,3.4-5.1,6.2-8.9,6.2-8.4s-2.4,5.6-5.2,11.3c-6.4,12.7-14.6,24.2-25,35.2l-7.8,8.2v49.5h-14v-49.3l-7.5-7.8c-12.1-12.6-22.7-28.1-28.9-42.3-3.3-7.5-3.3-8.3,0-2.6,4.5,7.6,17.1,22.6,26.7,31.6l9.1,8.6.2-23.1.2-23.1-6.3-9.3c-3.5-5.1-8.3-12.6-10.6-16.7-4.2-7.2-13-27.2-13-29.4s2.4,3.1,5.4,8.3c5.2,9.2,13.8,21.2,21.1,29.5l3.5,4v-18c0-26.1,2.7-68.7,5.7-92.5.7-5.3.7-5.3,1-1.5.2,2.2,1.2,13,2.3,24h0Z"/>
  </g>
</svg>